<svg xmlns="http://www.w3.org/2000/svg" viewBox="0 0 67.13 32.74"><defs><style>.cls-1{fill:none;stroke:#231f20;stroke-miterlimit:10}</style></defs><g id="Layer_2" data-name="Layer 2"><g id="icons"><g id="w03BOT"><path class="cls-1" d="M33.56 32.24H3.76A3.14 3.14 0 0 1 .5 29V3.74A3.16 3.16 0 0 1 3.79.5h59.77a3.14 3.14 0 0 1 3.06 3.08v25.5a3.15 3.15 0 0 1-3.15 3.16zm-6.28-18.81h.1v12c0 .45.1.61.57.59h3.2c.47 0 .57-.14.57-.59V7.21c0-.25 0-.48-.34-.48h-5.9c-.24 0-.35.07-.38.34-.13 1.09-.29 2.18-.43 3.27-.23 1.71-.46 3.42-.68 5.13a1.05 1.05 0 0 1-.18-.48c-.37-2.54-.77-5.08-1.11-7.62-.07-.54-.27-.65-.76-.64h-5c-.46 0-.54.15-.54.57v18.07c0 .41.11.53.52.51h3.19c.5 0 .65-.12.65-.63V13.56a1.05 1.05 0 0 1 .16.47c.56 3.81 1.12 7.63 1.65 11.44 0 .35.2.41.5.4h2.15c.35 0 .48-.11.52-.45.14-1.22.32-2.43.48-3.65q.52-4.17 1.06-8.34zm6.28 3v9c0 .56.17.66.68.65h5.23a12.49 12.49 0 0 0 3.16-.39A2.34 2.34 0 0 0 44.41 24a8.78 8.78 0 0 0 .38-2.54V12.7a17.15 17.15 0 0 0-.13-2c-.24-2-1-2.86-2.86-3.35A10 10 0 0 0 40.47 7c-2.17-.26-4.36-.06-6.54-.14-.42 0-.37.24-.37.49zm17.87 8.37a3.93 3.93 0 0 0 3.17 1.4 3 3 0 0 0 3.13-2.72 61 61 0 0 0 .05-9.07 2.65 2.65 0 0 0-2.31-2.63 4.44 4.44 0 0 0-4.19 1.14v-.69-4.9c0-.42-.1-.58-.55-.57h-3c-1.17 0-1.17 0-1.17 1.18V25.35c0 .42.1.57.55.55h2.92c.98 0 1 0 1.31-.93a.87.87 0 0 1 .09-.21zm-36.8-8.43V7.29c0-.37-.07-.53-.48-.52h-4c-.39 0-.48.12-.48.5v18.17c0 .34.07.48.45.48h4.08c.35 0 .47-.09.47-.46-.05-3.07-.04-6.1-.04-9.13z"/><path class="cls-1" d="M38.43 16.35v-5.78c0-.6.08-.66.67-.53a1.09 1.09 0 0 1 1 1.16v10.23a1.24 1.24 0 0 1-1.12 1.29c-.38.09-.52 0-.52-.43v-5.94zM51.42 18.85v-3.46c0-.7.28-1 .87-1s.87.32.87 1v6.54a2.41 2.41 0 0 1-.24 1.12.73.73 0 0 1-.68.47.81.81 0 0 1-.72-.52 1.52 1.52 0 0 1-.11-.7v-3.45z"/></g></g></g></svg>